<?xml version="1.0" encoding="utf-8" ?><svg xmlns="http://www.w3.org/2000/svg" xmlns:xlink="http://www.w3.org/1999/xlink" width="256" height="256" viewBox="0 0 256 256"><path transform="matrix(1 0 0 1 0.00012207 0)" d="M122.475 6.11324C189.77 3.07358 246.796 55.142 249.873 122.435C252.95 189.727 200.913 246.783 133.623 249.897C66.2789 253.014 9.1689 200.927 6.08948 133.582C3.01006 66.2363 55.1283 9.15529 122.475 6.11324Z"/><path fill="#818181" transform="matrix(1 0 0 1 0.00012207 0)" d="M125.695 22.0226C184.162 20.7498 232.614 67.0672 233.975 125.532C235.336 183.996 189.091 232.518 130.629 233.967C72.0415 235.419 23.3937 189.055 22.0298 130.465C20.666 71.8761 67.1038 23.2981 125.695 22.0226Z"/><path fill="#F6F6F6" transform="matrix(1 0 0 1 0.00012207 0)" d="M115.11 27.064C162.556 24.923 202.755 61.6477 204.9 109.093C207.045 156.539 170.324 196.742 122.879 198.891C75.4271 201.04 35.2186 164.314 33.0732 116.862C30.9278 69.4105 67.658 29.2052 115.11 27.064Z"/></svg>